<svg width="170" height="170" viewBox="0 0 170 170" fill="none" xmlns="http://www.w3.org/2000/svg">
<circle cx="85" cy="85" r="85" fill="#070707"/>
<path d="M72.9141 41.8594C76.0459 41.8595 78.9378 42.8746 81.2715 44.5889C83.0099 43.8256 84.9348 43.4015 86.96 43.4014C93.2954 43.4014 98.6481 47.5525 100.385 53.251C104.024 54.8635 106.84 57.9649 108.039 61.7696C114.358 63.1126 119.095 68.6626 119.095 75.3057C119.095 75.7044 119.076 76.0991 119.043 76.4893H38.5039C39.1907 69.4753 45.1756 63.9923 52.457 63.9922C52.5146 63.9922 52.5724 63.9925 52.6299 63.9932C53.7935 60.8953 56.0478 58.3208 58.9316 56.7237C58.9069 56.3877 58.8945 56.0483 58.8945 55.7061C58.8946 48.059 65.1717 41.8595 72.9141 41.8594Z" fill="#D9D9D9"/>
<path d="M121.623 73.0485C121.632 73.0664 123.392 76.6176 125.259 82.1472C144.354 85.6445 158 94.9082 158 105.788C158 117.225 142.918 126.874 122.28 129.918C115.178 139.018 101.979 145.697 78.8045 146.3C0.599218 148.338 35.9862 73.0485 35.9862 73.0485H121.623ZM128.435 94.2155C129.945 102.327 130.354 111.678 127.472 120.202C138.967 117.132 146.879 113.283 146.879 105.788C146.879 98.444 139.47 96.067 128.435 94.2155ZM70.3123 107.619C68.0884 106.87 64.4638 106.796 60.6024 107.265C57.684 107.62 55.0905 108.406 53.2137 109.401C54.7389 108.981 56.7835 108.661 59.3446 108.349C63.5023 107.844 67.6882 107.319 70.3123 107.619ZM96.9461 106.553C93.0823 106.084 89.4554 106.158 87.2303 106.907C89.8562 106.607 94.0443 107.133 98.2039 107.638C100.769 107.95 102.815 108.27 104.342 108.691C102.464 107.695 99.8671 106.909 96.9461 106.553ZM56.8455 101.529C57.568 102.66 59.9479 103.758 62.8905 104.208C65.7241 104.64 68.3551 104.615 69.5213 103.949C67.9952 104.172 65.3298 103.803 62.5545 103.38C60.1805 103.017 58.1252 102.32 56.8455 101.529ZM78.7205 102.145C78.1138 102.145 77.7376 102.806 78.0477 103.328C78.351 103.837 79.0891 103.838 79.3924 103.328C79.7025 102.806 79.327 102.146 78.7205 102.145ZM100.438 100.709C99.1593 101.5 97.1043 102.196 94.7313 102.558C91.9562 102.982 89.2917 103.35 87.7664 103.127C88.9314 103.794 91.5633 103.82 94.3973 103.387C97.3381 102.938 99.7162 101.839 100.438 100.709ZM85.4676 95.8161C83.52 95.8163 81.8837 96.5761 81.4256 97.6032C82.2262 96.8902 83.731 96.4089 85.4549 96.4089C87.2084 96.409 88.7346 96.907 89.5242 97.6403C89.0888 96.5947 87.4383 95.8161 85.4676 95.8161ZM71.9403 95.8161C69.9917 95.8161 68.3549 96.5764 67.8973 97.6042C68.6976 96.8905 70.2027 96.4089 71.9276 96.4089C73.6799 96.4089 75.2058 96.9058 75.9959 97.6384C75.5594 96.5937 73.9098 95.8162 71.9403 95.8161ZM59.9559 81.2341C59.9463 81.2552 58.0445 85.4363 57.6903 88.2136C57.3506 90.8774 58.0085 95.0073 58.1268 95.7136C58.6499 89.9412 58.905 86.5907 60.6639 84.7458L70.3406 91.9557L59.9559 81.2341ZM83.9793 89.0436L90.6854 79.194C92.9728 80.3853 94.3443 83.4773 96.7908 88.778C96.6726 88.1168 95.8994 83.9642 94.6707 81.5358C93.3991 79.0227 90.1913 75.6696 90.1727 75.6501L83.9793 89.0436Z" fill="#F6C9EC"/>
<path d="M87.6113 18.5708C79.5846 21.4337 80.9781 35.528 80.9781 35.528" stroke="#1C3D12" stroke-width="1.5"/>
<path d="M87.333 18.5541C92.9839 18.4848 93.3859 24.4049 93.3859 24.4049" stroke="#1C3D12" stroke-width="1.5"/>
<ellipse cx="78.9709" cy="39.9876" rx="7.19065" ry="7.10221" fill="#740C0C"/>
<ellipse cx="83.2082" cy="39.9876" rx="7.19065" ry="7.10221" fill="#740C0C"/>
<ellipse cx="3.87154" cy="3.82891" rx="3.87154" ry="3.82891" transform="matrix(0.973937 -0.22682 0.232201 0.972668 87.748 22.8319)" fill="#740C0C"/>
<ellipse cx="3.87154" cy="3.82891" rx="3.87154" ry="3.82891" transform="matrix(0.973937 -0.22682 0.232201 0.972668 89.918 22.3264)" fill="#740C0C"/>
<path d="M84.6932 11.7024C85.7087 12.0362 86.4474 12.3609 87.0848 12.89C87.7714 13.4601 88.3615 14.2852 89.0325 15.6662C89.3461 16.312 89.3604 16.8785 89.2071 17.3283C89.0527 17.7811 88.7217 18.1358 88.311 18.3453C87.4961 18.7608 86.3765 18.6001 85.7432 17.4546C85.3856 16.8078 85.0909 16.3128 84.8527 15.8601C84.6179 15.4136 84.4532 15.0348 84.36 14.6458C84.1853 13.917 84.255 13.1094 84.6932 11.7024Z" fill="#3FC149" stroke="black" stroke-width="0.5"/>
<path d="M92.8321 9.60173C93.2108 10.989 93.3968 12.0602 93.2655 13.1769C93.1265 14.3576 92.6304 15.6154 91.5784 17.3636C91.0776 18.1957 90.4415 18.6421 89.8082 18.813C89.172 18.9847 88.5182 18.8841 87.9728 18.5843C86.8889 17.9886 86.2372 16.6105 87.0751 15.0375C87.5333 14.1774 87.8731 13.4891 88.2042 12.8973C88.5319 12.3116 88.8377 11.8475 89.2093 11.453C89.9171 10.7016 90.8972 10.1719 92.8321 9.60173Z" fill="#3FC149" stroke="black" stroke-width="0.5"/>
<path d="M57.9493 124.403C56.7542 124.349 55.7747 124.059 55.011 123.533C54.2473 123.007 53.6897 122.334 53.3384 121.515C52.9875 120.684 52.8338 119.784 52.8773 118.815C52.9163 117.946 53.1079 117.134 53.4522 116.38C53.797 115.614 54.2576 114.987 54.8339 114.5C55.3413 114.066 55.8937 113.739 56.4912 113.521C57.0998 113.303 57.7582 113.21 58.4664 113.242C59.1525 113.273 59.7089 113.354 60.1355 113.485C60.562 113.616 60.922 113.75 61.2153 113.886C61.5086 114.022 61.7928 114.113 62.0679 114.159C62.136 114.62 62.1882 115.063 62.2245 115.489C62.2614 115.904 62.2922 116.329 62.317 116.766C62.2265 116.806 62.1364 116.836 62.0469 116.854C61.9574 116.872 61.8636 116.862 61.7655 116.824C61.6431 116.339 61.4531 115.878 61.1954 115.442C60.9382 114.995 60.5722 114.627 60.0972 114.337C59.6334 114.049 59.0197 113.887 58.2561 113.852C57.8245 113.832 57.3708 113.935 56.8951 114.158C56.4309 114.372 55.977 114.725 55.5335 115.218C55.2178 115.584 54.9584 116.052 54.7553 116.623C54.5523 117.194 54.4345 117.842 54.4021 118.566C54.3746 119.179 54.4362 119.784 54.5867 120.383C54.7484 120.981 54.9845 121.528 55.295 122.022C55.6166 122.517 56.0032 122.919 56.455 123.23C56.9073 123.53 57.4101 123.692 57.9634 123.717C58.7381 123.752 59.4304 123.644 60.0405 123.393C60.6621 123.131 61.2807 122.69 61.8961 122.071C62.0621 122.078 62.1856 122.168 62.2667 122.339C61.6688 123.06 61.0018 123.593 60.2655 123.939C59.5292 124.285 58.7571 124.44 57.9493 124.403Z" fill="#991111"/>
<path d="M63.0449 141.581C61.8498 141.526 60.8704 141.236 60.1066 140.711C59.3429 140.185 58.7854 139.512 58.434 138.692C58.0832 137.862 57.9295 136.962 57.9729 135.993C58.0119 135.124 58.2035 134.312 58.5479 133.557C58.8927 132.792 59.3532 132.165 59.9295 131.678C60.4369 131.243 60.9894 130.917 61.5869 130.698C62.1954 130.481 62.8538 130.388 63.5621 130.42C64.2482 130.451 64.8045 130.532 65.2311 130.663C65.6577 130.794 66.0176 130.928 66.3109 131.064C66.6042 131.2 66.8884 131.291 67.1636 131.337C67.2316 131.798 67.2838 132.241 67.3202 132.667C67.357 133.081 67.3878 133.507 67.4126 133.943C67.3221 133.984 67.2321 134.013 67.1425 134.032C67.053 134.05 66.9592 134.04 66.8611 134.002C66.7387 133.517 66.5487 133.056 66.291 132.62C66.0338 132.173 65.6678 131.805 65.1929 131.515C64.729 131.226 64.1153 131.064 63.3517 131.03C62.9202 131.01 62.4665 131.112 61.9907 131.336C61.5265 131.55 61.0727 131.903 60.6292 132.396C60.3134 132.761 60.054 133.23 59.851 133.801C59.6479 134.372 59.5302 135.02 59.4977 135.744C59.4702 136.356 59.5318 136.962 59.6824 137.56C59.844 138.159 60.0801 138.706 60.3906 139.2C60.7122 139.694 61.0989 140.097 61.5507 140.408C62.0029 140.707 62.5058 140.87 63.0591 140.895C63.8337 140.93 64.526 140.822 65.1361 140.571C65.7577 140.309 66.3763 139.868 66.9918 139.249C67.1578 139.256 67.2813 139.346 67.3623 139.517C66.7645 140.237 66.0974 140.771 65.3611 141.117C64.6248 141.463 63.8528 141.617 63.0449 141.581Z" fill="#991111"/>
<path d="M65.0198 123.415C64.9145 123.642 64.9132 123.816 65.0156 123.935C65.1189 124.043 65.2739 124.127 65.4806 124.187C65.6881 124.236 65.8965 124.273 66.1056 124.3C66.1576 124.348 66.1788 124.439 66.1692 124.573C66.1596 124.706 66.1252 124.799 66.0659 124.85C65.7573 124.816 65.4101 124.78 65.0242 124.741C64.6486 124.713 64.2895 124.687 63.947 124.662C63.6929 124.643 63.4388 124.625 63.1847 124.606C62.9298 124.599 62.6914 124.593 62.4696 124.588C62.4295 124.529 62.4142 124.433 62.4238 124.299C62.4334 124.166 62.4619 124.078 62.5093 124.037C62.8755 124.041 63.1956 123.992 63.4696 123.889C63.7444 123.775 64.0051 123.47 64.2519 122.974L68.6583 114.307C68.7688 114.315 68.9203 114.292 69.113 114.239C69.3064 114.175 69.4667 114.108 69.5938 114.039L72.3201 123.831C72.4349 124.242 72.6217 124.502 72.8804 124.61C73.1392 124.718 73.4276 124.801 73.7456 124.858C73.7976 124.906 73.8188 124.997 73.8092 125.13C73.7996 125.264 73.7651 125.356 73.7059 125.408C73.4194 125.376 73.1164 125.343 72.7968 125.308C72.4874 125.286 72.1615 125.262 71.819 125.237C71.4986 125.213 71.134 125.187 70.7252 125.157C70.3156 125.138 69.9558 125.123 69.6456 125.112C69.6054 125.053 69.5901 124.957 69.5997 124.823C69.6094 124.69 69.6379 124.602 69.6853 124.561C70.0854 124.557 70.4149 124.53 70.6739 124.482C70.9438 124.435 71.0395 124.263 70.9609 123.967L70.2029 121.077L66.7061 120.822C66.5072 120.807 66.3675 120.819 66.2869 120.858C66.2182 120.887 66.1578 120.955 66.1056 121.063L65.0198 123.415ZM67.0549 120.143L69.9882 120.357L68.7574 115.706L68.6579 115.698L66.6562 119.896C66.6174 119.971 66.63 120.028 66.6939 120.066C66.7577 120.104 66.8781 120.13 67.0549 120.143Z" fill="#991111"/>
<path d="M71.5332 139.99C71.428 140.217 71.4266 140.39 71.5291 140.51C71.6324 140.618 71.7874 140.702 71.9941 140.762C72.2016 140.81 72.4099 140.848 72.619 140.874C72.6711 140.923 72.6923 141.014 72.6827 141.147C72.6731 141.281 72.6386 141.373 72.5794 141.425C72.2708 141.391 71.9236 141.355 71.5377 141.315C71.1621 141.288 70.803 141.262 70.4605 141.237C70.2064 141.218 69.9523 141.2 69.6981 141.181C69.4432 141.174 69.2049 141.167 68.9831 141.162C68.9429 141.103 68.9276 141.007 68.9373 140.874C68.9469 140.74 68.9754 140.653 69.0228 140.612C69.389 140.616 69.7091 140.567 69.9831 140.464C70.2578 140.35 70.5186 140.045 70.7654 139.548L75.1718 130.881C75.2822 130.889 75.4338 130.867 75.6264 130.814C75.8199 130.75 75.9802 130.683 76.1073 130.614L78.8336 140.406C78.9484 140.817 79.1352 141.076 79.3939 141.185C79.6527 141.293 79.941 141.376 80.259 141.432C80.3111 141.481 80.3323 141.572 80.3227 141.705C80.313 141.839 80.2786 141.931 80.2194 141.983C79.9329 141.951 79.6299 141.917 79.3103 141.883C79.0009 141.86 78.675 141.836 78.3325 141.811C78.0121 141.788 77.6475 141.761 77.2387 141.732C76.8291 141.713 76.4692 141.698 76.1591 141.686C76.1189 141.627 76.1036 141.531 76.1132 141.398C76.1228 141.264 76.1513 141.177 76.1987 141.136C76.5989 141.131 76.9284 141.105 77.1873 141.057C77.4573 141.01 77.553 140.838 77.4744 140.541L76.7164 137.652L73.2195 137.397C73.0207 137.382 72.8809 137.394 72.8004 137.433C72.7317 137.462 72.6713 137.53 72.619 137.638L71.5332 139.99ZM73.5683 136.718L76.5017 136.932L75.2708 132.28L75.1714 132.273L73.1696 136.471C73.1309 136.546 73.1434 136.603 73.2073 136.641C73.2712 136.679 73.3916 136.705 73.5683 136.718Z" fill="#991111"/>
<path d="M79.9924 123.749C79.9813 124.206 80.0119 124.541 80.0842 124.755C80.1677 124.969 80.325 125.107 80.5562 125.168C80.7874 125.23 81.1242 125.277 81.5666 125.31C81.6209 125.356 81.6464 125.446 81.6432 125.58C81.6399 125.714 81.6099 125.808 81.5532 125.862C81.1437 125.841 80.7342 125.819 80.3248 125.798C79.9261 125.788 79.5662 125.779 79.245 125.772C78.9128 125.763 78.5418 125.754 78.1321 125.744C77.7331 125.745 77.3287 125.746 76.9186 125.748C76.8757 125.691 76.8559 125.595 76.8591 125.462C76.8624 125.328 76.8867 125.239 76.9321 125.196C77.3756 125.184 77.7143 125.154 77.9482 125.104C78.1821 125.054 78.3404 124.924 78.4231 124.714C78.5169 124.504 78.5693 124.171 78.5805 123.714L78.7374 117.276C78.7499 116.763 78.7043 116.361 78.6006 116.068C78.5083 115.765 78.3071 115.609 77.997 115.602L77.183 115.581C76.6404 115.568 76.1777 115.685 75.7949 115.932C75.4122 116.179 75.1296 116.635 74.9472 117.3C74.8475 117.297 74.748 117.289 74.6486 117.276C74.5602 117.262 74.4722 117.238 74.3844 117.202C74.4828 116.803 74.5758 116.398 74.6633 115.988C74.7512 115.566 74.8163 115.166 74.8588 114.788C74.8596 114.754 74.8822 114.738 74.9264 114.739C75.1366 114.756 75.4629 114.781 75.9053 114.814C76.3588 114.847 76.8455 114.882 77.3654 114.917C77.8967 114.941 78.3728 114.958 78.7936 114.969L80.2222 115.004C80.6651 115.015 81.1359 115.021 81.6345 115.022C82.1445 115.012 82.6101 115.002 83.0315 114.99C83.4529 114.978 83.7578 114.969 83.9463 114.962C83.9795 114.963 83.9958 114.98 83.9949 115.014C83.9968 115.393 84.0093 115.789 84.0324 116.202C84.067 116.605 84.1072 117.002 84.153 117.393C84.0747 117.425 83.98 117.445 83.869 117.453C83.7691 117.462 83.6748 117.465 83.5862 117.463C83.458 116.813 83.2031 116.36 82.8215 116.106C82.4401 115.84 81.9394 115.699 81.3192 115.684L80.9538 115.675C80.6548 115.667 80.4462 115.813 80.3282 116.111C80.2212 116.409 80.1611 116.826 80.1481 117.361L79.9924 123.749Z" fill="#991111"/>
<path d="M100.487 109.614C100.761 109.654 100.962 109.811 101.09 110.083C101.218 110.356 101.252 110.699 101.192 111.113C101.145 111.434 101.026 111.708 100.835 111.933C100.644 112.159 100.413 112.331 100.144 112.451C99.8731 112.58 99.5974 112.648 99.3167 112.653C99.2465 112.558 99.2215 112.442 99.2415 112.304C99.487 112.284 99.7118 112.214 99.9159 112.094C100.119 111.983 100.281 111.861 100.403 111.729C100.525 111.596 100.593 111.48 100.608 111.379C100.63 111.222 100.596 111.109 100.503 111.039C100.411 110.969 100.302 110.916 100.177 110.878C100.051 110.841 99.9264 110.771 99.8014 110.668C99.6764 110.565 99.63 110.403 99.6621 110.183C99.6902 109.99 99.7821 109.839 99.9378 109.73C100.094 109.622 100.276 109.583 100.487 109.614Z" fill="#991111"/>
<path d="M97.2081 126.465C97.4821 126.506 97.6833 126.662 97.8116 126.935C97.9399 127.207 97.9739 127.55 97.9138 127.964C97.867 128.286 97.7479 128.559 97.5565 128.785C97.3651 129.01 97.1347 129.183 96.8654 129.303C96.5947 129.432 96.319 129.499 96.0383 129.505C95.9681 129.41 95.9431 129.293 95.9631 129.156C96.2087 129.135 96.4334 129.065 96.6375 128.945C96.8402 128.834 97.0026 128.712 97.1244 128.58C97.2463 128.448 97.3146 128.331 97.3293 128.23C97.352 128.074 97.3172 127.96 97.2247 127.89C97.1323 127.821 97.0234 127.767 96.8982 127.73C96.773 127.692 96.648 127.622 96.523 127.519C96.398 127.416 96.3516 127.255 96.3837 127.034C96.4118 126.841 96.5037 126.69 96.6594 126.582C96.8151 126.473 96.998 126.434 97.2081 126.465Z" fill="#991111"/>
<path d="M86.4111 136.323L84.8677 136.4L85.033 139.758C85.0555 140.214 85.1106 140.547 85.1985 140.754C85.2863 140.962 85.4368 141.089 85.6497 141.134C85.8627 141.179 86.1633 141.203 86.5516 141.206C86.6092 141.248 86.6412 141.336 86.6478 141.469C86.6544 141.603 86.6314 141.699 86.5788 141.757C86.2906 141.761 85.9526 141.766 85.5648 141.774C85.1886 141.793 84.8124 141.812 84.4363 141.831C84.0601 141.849 83.6784 141.868 83.2912 141.888C82.9045 141.918 82.5676 141.946 82.2805 141.972C82.2335 141.918 82.2067 141.825 82.2001 141.691C82.1935 141.557 82.2113 141.467 82.2533 141.42C82.6395 141.379 82.9363 141.325 83.1437 141.259C83.3512 141.193 83.4885 141.052 83.5555 140.836C83.6225 140.621 83.6448 140.285 83.6223 139.828L83.2926 133.129C83.2696 132.661 83.2145 132.329 83.1271 132.133C83.0393 131.925 82.8889 131.798 82.6759 131.753C82.4624 131.697 82.1618 131.673 81.774 131.681C81.727 131.627 81.7002 131.534 81.6936 131.4C81.687 131.267 81.7048 131.176 81.7469 131.13C82.0793 131.124 82.4505 131.117 82.8604 131.108C83.2808 131.087 83.6238 131.07 83.8894 131.056L88.1213 130.845C88.3315 130.835 88.4753 130.828 88.5528 130.824C88.6408 130.808 88.7558 130.78 88.898 130.74C88.9423 130.737 88.9652 130.753 88.9669 130.786C88.9796 130.819 89.0016 130.93 89.0331 131.118C89.0756 131.306 89.1198 131.527 89.1656 131.781C89.2224 132.035 89.274 132.295 89.3204 132.561C89.3772 132.815 89.4208 133.025 89.4512 133.19C89.3101 133.253 89.14 133.29 88.9408 133.3C88.7999 132.916 88.6344 132.595 88.4442 132.336C88.2651 132.077 88.0116 131.883 87.6836 131.755C87.3556 131.626 86.8984 131.576 86.312 131.605L85.5652 131.643C85.2001 131.661 84.9545 131.74 84.8283 131.88C84.7126 132.009 84.666 132.302 84.6885 132.758L84.8365 135.765L86.3799 135.688C86.8556 135.664 87.1917 135.62 87.3881 135.554C87.5951 135.477 87.7221 135.353 87.7692 135.183C87.8163 135.014 87.8379 134.778 87.8342 134.477C87.8868 134.418 87.9795 134.386 88.1122 134.379C88.245 134.373 88.3349 134.396 88.3819 134.45C88.3812 134.662 88.3811 134.885 88.3816 135.119C88.3931 135.353 88.4057 135.609 88.4194 135.888C88.4336 136.177 88.4468 136.445 88.4589 136.69C88.4814 136.923 88.5035 137.145 88.5249 137.356C88.4829 137.403 88.3955 137.43 88.2627 137.436C88.1299 137.443 88.0348 137.425 87.9773 137.384C87.9536 137.128 87.91 136.918 87.8464 136.754C87.7829 136.59 87.6441 136.474 87.4301 136.406C87.2265 136.327 86.8869 136.299 86.4111 136.323Z" fill="#991111"/>
<path d="M91.2493 123.182C91.2857 123.638 91.3509 123.968 91.445 124.173C91.5502 124.377 91.7209 124.498 91.9572 124.535C92.1936 124.572 92.5334 124.583 92.9769 124.57C93.0356 124.61 93.0703 124.696 93.081 124.83C93.0916 124.963 93.0715 125.06 93.0207 125.12C92.6113 125.142 92.2019 125.164 91.7924 125.186C91.3949 125.218 91.0361 125.247 90.7158 125.273C90.3846 125.299 90.0147 125.329 89.6061 125.362C89.2095 125.405 88.8073 125.449 88.3997 125.493C88.3511 125.441 88.3215 125.349 88.3108 125.215C88.3002 125.082 88.3152 124.991 88.3558 124.943C88.7957 124.885 89.1294 124.819 89.3569 124.745C89.5843 124.67 89.7283 124.525 89.7887 124.307C89.8602 124.089 89.8778 123.752 89.8415 123.296L89.3298 116.877C89.2891 116.366 89.2019 115.97 89.0685 115.69C88.9452 115.398 88.7289 115.264 88.4198 115.289L87.6082 115.355C87.0671 115.399 86.6191 115.563 86.264 115.849C85.909 116.135 85.6752 116.619 85.5628 117.299C85.4634 117.307 85.3636 117.309 85.2633 117.306C85.1741 117.302 85.084 117.287 84.993 117.261C85.0494 116.854 85.0999 116.441 85.1444 116.024C85.188 115.595 85.2113 115.191 85.2143 114.81C85.2117 114.777 85.2324 114.758 85.2766 114.755C85.4873 114.749 85.8143 114.739 86.2578 114.726C86.7123 114.711 87.1999 114.694 87.7207 114.675C88.2516 114.643 88.7268 114.61 89.1464 114.576L90.5708 114.461C91.0125 114.426 91.4813 114.382 91.9773 114.331C92.4835 114.268 92.9455 114.208 93.3633 114.152C93.7811 114.096 94.0835 114.054 94.2703 114.028C94.3034 114.026 94.3213 114.041 94.324 114.074C94.3651 114.451 94.4187 114.844 94.4846 115.253C94.5606 115.649 94.6418 116.04 94.728 116.424C94.6534 116.464 94.5613 116.494 94.4517 116.514C94.3533 116.533 94.2598 116.546 94.1715 116.553C93.9766 115.92 93.6761 115.497 93.2702 115.284C92.8633 115.059 92.3507 114.972 91.7324 115.022L91.368 115.051C91.0698 115.075 90.8775 115.242 90.791 115.551C90.7156 115.859 90.6991 116.28 90.7416 116.813L91.2493 123.182Z" fill="#991111"/>
<path d="M100.304 118.062C100.774 117.987 101.104 117.906 101.292 117.819C101.489 117.72 101.602 117.583 101.631 117.409C101.659 117.235 101.655 116.999 101.619 116.7C101.665 116.636 101.754 116.593 101.885 116.572C102.016 116.551 102.108 116.565 102.161 116.613C102.181 116.813 102.207 117.046 102.238 117.312C102.278 117.565 102.316 117.807 102.353 118.038C102.398 118.325 102.439 118.584 102.476 118.815C102.523 119.044 102.57 119.268 102.616 119.487C102.579 119.538 102.495 119.574 102.364 119.595C102.233 119.616 102.136 119.609 102.074 119.574C102.023 119.322 101.957 119.118 101.877 118.962C101.796 118.805 101.645 118.705 101.425 118.662C101.214 118.605 100.874 118.615 100.403 118.69L98.9101 118.93L99.4884 122.58C99.5494 122.966 99.6578 123.225 99.8135 123.358C99.9801 123.489 100.233 123.528 100.572 123.473L102.476 123.168C103.099 123.068 103.536 122.783 103.787 122.314C104.047 121.831 104.212 121.28 104.282 120.659C104.472 120.583 104.668 120.58 104.87 120.649C104.87 121.078 104.856 121.555 104.827 122.079C104.796 122.592 104.754 123.067 104.7 123.505C104.7 123.505 104.578 123.519 104.336 123.547C104.095 123.585 103.81 123.625 103.48 123.667C103.152 123.72 102.857 123.767 102.594 123.809L99.066 124.376C98.7926 124.419 98.4425 124.476 98.0159 124.544C97.6019 124.622 97.2427 124.691 96.9381 124.751C96.8856 124.703 96.8489 124.613 96.828 124.481C96.8071 124.349 96.815 124.257 96.8518 124.206C97.2312 124.122 97.5204 124.036 97.7196 123.948C97.9187 123.86 98.04 123.705 98.0834 123.483C98.1268 123.262 98.1128 122.925 98.0413 122.474L96.9921 115.85C96.9188 115.388 96.8282 115.063 96.7203 114.878C96.6105 114.681 96.4474 114.571 96.2308 114.55C96.0125 114.517 95.7111 114.526 95.3264 114.576C95.274 114.528 95.2372 114.438 95.2163 114.306C95.1954 114.174 95.2033 114.082 95.2401 114.031C95.57 113.989 95.9437 113.941 96.3611 113.885C96.7768 113.818 97.1105 113.765 97.3621 113.724L101.546 113.053C101.743 113.021 101.89 112.992 101.987 112.965C102.083 112.938 102.201 112.903 102.34 112.858C102.384 112.851 102.408 112.864 102.413 112.897C102.43 112.928 102.463 113.035 102.515 113.219C102.577 113.401 102.645 113.616 102.718 113.864C102.802 114.11 102.881 114.363 102.956 114.622C103.04 114.868 103.106 115.072 103.154 115.234C102.993 115.35 102.817 115.407 102.625 115.403C102.444 115.037 102.267 114.733 102.094 114.489C101.931 114.244 101.724 114.069 101.472 113.962C101.23 113.854 100.902 113.834 100.486 113.901L99.2553 114.098C98.8177 114.168 98.5418 114.303 98.4275 114.502C98.3114 114.69 98.2822 114.966 98.3398 115.329L98.8107 118.302L100.304 118.062Z" fill="#991111"/>
<path d="M96.1671 135.177C96.6417 135.135 96.9759 135.078 97.1697 135.005C97.3736 134.92 97.496 134.792 97.5368 134.62C97.5776 134.449 97.5906 134.213 97.5757 133.912C97.6261 133.851 97.7175 133.815 97.85 133.804C97.9824 133.792 98.0731 133.812 98.122 133.864C98.1282 134.065 98.1373 134.299 98.1493 134.567C98.1713 134.822 98.1924 135.067 98.2126 135.3C98.2375 135.589 98.26 135.85 98.2801 136.083C98.3113 136.315 98.342 136.542 98.3722 136.763C98.3319 136.812 98.2455 136.842 98.1131 136.853C97.9807 136.865 97.8849 136.851 97.8259 136.811C97.7928 136.557 97.7415 136.348 97.672 136.187C97.6024 136.025 97.4594 135.914 97.243 135.855C97.0367 135.783 96.6963 135.768 96.2218 135.81L94.7154 135.941L95.0331 139.624C95.0667 140.013 95.1564 140.279 95.3022 140.423C95.4591 140.566 95.7086 140.623 96.0507 140.593L97.971 140.425C98.6 140.37 99.0564 140.117 99.34 139.667C99.6337 139.205 99.8374 138.667 99.9512 138.052C100.146 137.991 100.342 138.002 100.538 138.085C100.508 138.513 100.46 138.987 100.394 139.508C100.326 140.018 100.25 140.489 100.165 140.921C100.165 140.921 100.044 140.926 99.7998 140.937C99.557 140.958 99.2696 140.977 98.9375 140.995C98.6064 141.024 98.3085 141.05 98.0436 141.073L94.4845 141.385C94.2086 141.409 93.8555 141.44 93.4251 141.477C93.0067 141.525 92.6435 141.568 92.3354 141.606C92.2865 141.554 92.2563 141.462 92.2448 141.329C92.2332 141.195 92.2477 141.104 92.288 141.056C92.6723 141 92.9669 140.935 93.1718 140.861C93.3767 140.787 93.5087 140.642 93.5677 140.424C93.6267 140.206 93.6366 139.869 93.5973 139.414L93.0207 132.732C92.9804 132.265 92.913 131.935 92.8185 131.742C92.7231 131.538 92.5681 131.417 92.3536 131.38C92.1382 131.332 91.8369 131.319 91.4497 131.341C91.4007 131.29 91.3705 131.197 91.359 131.064C91.3475 130.931 91.3619 130.84 91.4022 130.792C91.7342 130.774 92.1104 130.752 92.5307 130.726C92.9501 130.69 93.2867 130.66 93.5405 130.638L97.7618 130.269C97.9604 130.252 98.1089 130.233 98.2073 130.213C98.3056 130.193 98.4256 130.166 98.5672 130.131C98.6113 130.128 98.6348 130.142 98.6377 130.176C98.6516 130.208 98.6777 130.318 98.7161 130.505C98.7655 130.691 98.8178 130.91 98.8729 131.162C98.9391 131.414 99.0003 131.672 99.0564 131.935C99.1226 132.187 99.1739 132.395 99.2104 132.56C99.0415 132.664 98.8618 132.708 98.6713 132.691C98.5163 132.313 98.3611 131.996 98.2057 131.741C98.0613 131.485 97.867 131.295 97.6228 131.171C97.3896 131.046 97.0633 131.002 96.644 131.038L95.4024 131.147C94.961 131.185 94.6762 131.3 94.5481 131.49C94.419 131.669 94.3703 131.942 94.4019 132.309L94.6607 135.308L96.1671 135.177Z" fill="#991111"/>
</svg>
